<svg version="1.1" id="Layer_1" xmlns="http://www.w3.org/2000/svg" xmlns:xlink="http://www.w3.org/1999/xlink" x="0px" y="0px" viewBox="0 0 200 200" style="enable-background:new 0 0 200 200;" xml:space="preserve">
<style type="text/css">
	.st0{fill:#006;}
</style>
<g>
	<g>
		<g>
			<g>
				<path class="st0" d="M100,200C44.86,200,0,155.14,0,100C0,44.86,44.86,0,100,0c55.14,0,100,44.86,100,100
					C200,155.14,155.14,200,100,200z M100,8.38C49.48,8.38,8.38,49.48,8.38,100s41.1,91.62,91.62,91.62s91.62-41.1,91.62-91.62
					S150.52,8.38,100,8.38z"/>
			</g>
		</g>
	</g>
	<g>
		<g>
			<g>
				<g>
					<path class="st0" d="M156.24,60.28c0,0-0.46,0.59-1.4,1.42c-0.47,0.41-1.06,0.88-1.8,1.36c-0.72,0.49-1.57,0.97-2.55,1.45
						c-0.97,0.47-2.07,0.88-3.28,1.24c-1.21,0.34-2.52,0.63-3.92,0.73c-1.4,0.14-2.89,0.13-4.4-0.07c-1.51-0.16-3.04-0.58-4.51-1.11
						c-1.47-0.6-2.89-1.3-4.13-2.23c-0.31-0.23-0.64-0.43-0.92-0.68c-0.29-0.26-0.56-0.51-0.85-0.76c-0.57-0.48-1.05-1.05-1.53-1.58
						c-0.94-1.09-1.7-2.23-2.31-3.36c-0.31-0.56-0.56-1.13-0.79-1.68c-0.21-0.55-0.46-1.07-0.6-1.59c-0.15-0.53-0.3-1.02-0.42-1.5
						c-0.12-0.47-0.19-0.93-0.25-1.37c-0.14-0.86-0.24-1.61-0.23-2.24c-0.02-0.63,0.01-1.13,0.01-1.46
						c0.02-0.34,0.03-0.51,0.03-0.51s0.14,0.13,0.38,0.37c0.22,0.24,0.59,0.59,0.98,1.04c0.38,0.46,0.9,0.97,1.45,1.57
						c0.52,0.61,1.16,1.24,1.82,1.92c0.31,0.35,0.67,0.68,1.04,1.02c0.35,0.34,0.7,0.72,1.11,1.03c0.74,0.68,1.56,1.34,2.4,1.97
						c0.86,0.62,1.73,1.21,2.66,1.7c0.9,0.54,1.88,0.94,2.86,1.35c1.01,0.35,2.01,0.72,3.07,0.95c0.26,0.07,0.52,0.13,0.8,0.18
						c0.26,0.06,0.52,0.12,0.79,0.18c0.55,0.08,1.07,0.18,1.61,0.25c1.06,0.16,2.14,0.24,3.18,0.32c1.05,0.07,2.06,0.11,3.01,0.12
						c1.91,0.05,3.58,0.02,4.78,0.02C155.54,60.29,156.24,60.28,156.24,60.28z"/>
					<path class="st0" d="M141.4,68.67c-0.91,0-1.84-0.06-2.77-0.18c-1.45-0.15-3.09-0.55-4.95-1.22c-2-0.82-3.46-1.61-4.68-2.53
						c-0.5-0.35-0.79-0.55-1.04-0.78l-0.86-0.77c-0.52-0.43-1-0.97-1.47-1.49c-1.24-1.44-2.11-2.69-2.83-4.03
						c-0.34-0.61-0.62-1.25-0.88-1.87l-0.2-0.48c-0.19-0.47-0.37-0.92-0.49-1.38l-0.42-1.52c-0.13-0.49-0.21-0.99-0.28-1.47
						c-0.17-1.08-0.27-1.95-0.27-2.69c-0.02-0.38-0.01-0.79,0-1.13l0.05-1.01c0.08-0.79,0.59-1.47,1.33-1.76
						c0.73-0.28,1.58-0.13,2.17,0.4l0.46,0.45l-0.81,1.2l0.18,0.02l0.92-0.91c0.23,0.23,0.49,0.5,0.77,0.82
						c0.25,0.3,0.53,0.59,0.83,0.91l0.58,0.61c0.4,0.46,0.8,0.87,1.22,1.31l0.57,0.59c0.28,0.32,0.55,0.56,0.82,0.81l0.46,0.44
						c0.2,0.2,0.4,0.4,0.63,0.58c0.83,0.76,1.6,1.37,2.38,1.95c0.75,0.54,1.53,1.08,2.38,1.53c0.85,0.51,1.66,0.84,2.46,1.17
						c1.22,0.44,2.05,0.74,2.93,0.92c0.32,0.09,0.52,0.13,0.72,0.17c0.03,0,0.46,0.1,0.49,0.11l1.8,0.3
						c1.07,0.16,2.1,0.23,3.08,0.31c0.99,0.06,1.97,0.1,2.89,0.12c0.81,0.02,1.57,0.03,2.27,0.03l4.39-0.03
						c0.85-0.17,1.53,0.45,1.89,1.17c0.36,0.72,0.27,1.58-0.22,2.22c0,0-0.54,0.7-1.66,1.69c-0.56,0.48-1.23,1.02-2.06,1.55
						c-0.75,0.52-1.69,1.05-2.78,1.58c-1.09,0.52-2.3,0.98-3.6,1.36c-1.64,0.45-3.01,0.71-4.35,0.81
						C142.81,68.63,142.11,68.67,141.4,68.67z M125.09,52.25l0.17,0.59c0.08,0.31,0.2,0.59,0.33,0.88l0.2,0.52
						c0.18,0.43,0.4,0.93,0.68,1.42c0.59,1.09,1.28,2.1,2.06,3.01c0.55,0.62,0.89,1.01,1.29,1.35l0.9,0.8
						c0.12,0.11,0.29,0.22,0.45,0.34c1.26,0.93,2.43,1.56,4,2.2c1.45,0.52,2.77,0.84,3.93,0.97c1.44,0.18,2.72,0.19,3.97,0.07
						c1.11-0.09,2.23-0.3,3.57-0.67c1.05-0.31,2.05-0.69,2.94-1.11c0.16-0.07,0.31-0.15,0.46-0.23c-0.19,0-0.38-0.01-0.57-0.01
						c-0.96-0.02-2.01-0.06-3.09-0.13c-1.11-0.08-2.24-0.17-3.36-0.34c-0.28-0.03-0.62-0.09-0.95-0.14l-0.64-0.1
						c-0.06-0.01-0.5-0.11-0.56-0.12c-0.64-0.13-0.97-0.2-1.3-0.29c-0.93-0.2-1.93-0.54-2.93-0.89c-0.04-0.02-0.57-0.22-0.61-0.24
						c-0.99-0.41-1.98-0.84-2.9-1.39c-0.91-0.47-1.86-1.12-2.8-1.79c-0.92-0.7-1.8-1.4-2.59-2.13c-0.24-0.17-0.57-0.5-0.89-0.82
						l1.07-1.87l-1.42,1.53c-0.37-0.34-0.73-0.68-1.05-1.04L125.09,52.25z"/>
				</g>
			</g>
		</g>
		<g>
			<g>
				<g>
					<path class="st0" d="M42.77,60.58c0,0,0.69,0.16,1.88,0.46c1.17,0.28,2.79,0.68,4.66,1.08c0.93,0.2,1.93,0.38,2.95,0.57
						c1.03,0.16,2.1,0.33,3.18,0.42c0.54,0.06,1.08,0.08,1.62,0.13c0.27,0,0.54,0.01,0.82,0.02c0.27,0.01,0.54,0.02,0.8,0
						c1.09,0.02,2.15-0.11,3.22-0.22c1.04-0.18,2.09-0.34,3.09-0.66c1.01-0.27,2-0.64,2.97-1.04c0.96-0.42,1.9-0.87,2.79-1.37
						c0.47-0.22,0.88-0.51,1.31-0.75c0.43-0.25,0.86-0.48,1.24-0.76c0.79-0.52,1.56-0.98,2.21-1.44c0.66-0.46,1.29-0.84,1.77-1.2
						c0.48-0.34,0.92-0.6,1.2-0.79c0.28-0.18,0.45-0.27,0.45-0.27s-0.02,0.18-0.09,0.51c-0.07,0.33-0.16,0.83-0.32,1.43
						c-0.14,0.61-0.41,1.32-0.74,2.14c-0.16,0.4-0.34,0.83-0.56,1.26c-0.23,0.44-0.48,0.88-0.75,1.37
						c-0.25,0.48-0.61,0.92-0.95,1.42c-0.34,0.48-0.72,0.97-1.15,1.45c-0.84,0.96-1.85,1.89-3.01,2.74
						c-0.59,0.41-1.18,0.85-1.86,1.19c-0.34,0.18-0.65,0.36-1,0.54c-0.34,0.18-0.7,0.3-1.06,0.46c-1.42,0.62-2.97,0.97-4.53,1.23
						c-1.56,0.17-3.14,0.23-4.65,0.05c-1.51-0.17-2.96-0.49-4.29-0.95c-1.34-0.43-2.55-1.02-3.66-1.61
						c-1.09-0.63-2.06-1.28-2.91-1.96c-0.84-0.68-1.56-1.35-2.15-1.99c-0.61-0.63-1.08-1.22-1.45-1.74
						C43.07,61.24,42.77,60.58,42.77,60.58z"/>
					<path class="st0" d="M60.19,72.73c-0.74,0-1.48-0.04-2.19-0.13c-1.64-0.18-3.23-0.54-4.72-1.05c-1.53-0.49-2.93-1.19-3.97-1.75
						c-1.24-0.72-2.31-1.44-3.23-2.17c-0.93-0.74-1.73-1.5-2.38-2.21c-0.65-0.68-1.19-1.35-1.61-1.93
						c-0.88-1.26-1.24-2.05-1.24-2.05c-0.32-0.73-0.21-1.59,0.3-2.2c0.51-0.61,1.32-0.89,2.1-0.71l2.37,0.58
						c1.1,0.27,2.52,0.61,4.12,0.95c0.92,0.2,1.89,0.38,2.89,0.56c0.98,0.15,1.98,0.31,2.98,0.39l2.73,0.14l0.6,0
						c0.76,0,1.51-0.08,2.26-0.16l0.49-0.05c0.93-0.16,1.82-0.31,2.68-0.58c1.02-0.27,1.91-0.61,2.8-0.98
						c0.86-0.38,1.73-0.79,2.57-1.26c0.38-0.18,0.59-0.31,0.79-0.44l0.51-0.31c0.5-0.29,0.79-0.45,1.06-0.64l0.82-0.53
						c0.49-0.32,0.97-0.61,1.39-0.92l0.87-0.59c0.32-0.21,0.61-0.41,0.87-0.59c0.4-0.28,0.74-0.5,1.01-0.68
						c0.66-0.43,0.9-0.56,0.9-0.56c0.7-0.35,1.53-0.29,2.17,0.16c0.63,0.45,0.98,1.21,0.88,1.98c0,0-0.03,0.23-0.11,0.65
						c-0.14,0.67-0.22,1.09-0.35,1.56c-0.14,0.62-0.44,1.43-0.81,2.37c-0.23,0.57-0.42,1.02-0.65,1.47l-0.77,1.41
						c-0.21,0.41-0.51,0.83-0.82,1.26l-0.25,0.34c-0.4,0.56-0.82,1.11-1.32,1.65c-0.96,1.09-2.09,2.12-3.32,3.02
						c-0.9,0.63-1.49,1.04-2.15,1.37l-0.95,0.52c-0.29,0.15-0.57,0.27-0.87,0.39c-1.74,0.75-3.28,1.17-5.37,1.52
						C62.16,72.67,61.17,72.73,60.19,72.73z M48.32,64.05c0.13,0.11,0.26,0.21,0.39,0.32c0.77,0.62,1.65,1.21,2.64,1.78
						c0.88,0.47,2,1.04,3.25,1.43c1.24,0.43,2.53,0.72,3.88,0.86c1.41,0.17,2.8,0.1,4.19-0.05c1.62-0.27,2.86-0.61,3.91-1.06
						l0.47-0.2c0.16-0.06,0.32-0.12,0.46-0.2l1-0.54c0.5-0.25,0.92-0.56,1.33-0.85c1.26-0.91,2.17-1.73,2.95-2.62
						c0.39-0.44,0.72-0.86,1.02-1.28l0.27-0.38c0.2-0.27,0.38-0.52,0.53-0.79l0.32-0.58l-0.49,0.31c-0.31,0.22-0.72,0.46-1.15,0.71
						l-0.58,0.34c-0.35,0.22-0.71,0.43-1.1,0.61c-0.8,0.45-1.8,0.94-2.82,1.38c-1.1,0.45-2.17,0.86-3.27,1.15
						c-0.95,0.3-2.03,0.49-3.1,0.67l-0.79,0.1c-0.89,0.09-1.78,0.18-2.69,0.18l-0.6,0l-3.13-0.16c-1.05-0.09-2.14-0.25-3.2-0.42
						c-1.17-0.21-2.2-0.4-3.16-0.61C48.68,64.13,48.5,64.09,48.32,64.05z"/>
				</g>
			</g>
		</g>
	</g>
	<g>
		<g>
			<g>
				<path class="st0" d="M134.9,105.87c3.24,0,6.44,0.18,9.61,0.52c0.93-3.23,1.46-6.93,1.46-10.86c0-12.49-5.34-22.63-11.92-22.63
					c-6.59,0-11.93,10.13-11.93,22.63c0,4.01,0.56,7.78,1.52,11.05C127.34,106.11,131.1,105.87,134.9,105.87z"/>
				<path class="st0" d="M123.65,108.68c-0.92,0-1.74-0.6-2.01-1.5c-1.05-3.56-1.61-7.59-1.61-11.65c0-13.86,6.16-24.72,14.02-24.72
					c7.86,0,14.01,10.86,14.01,24.72c0,4-0.53,7.96-1.54,11.44c-0.28,0.98-1.14,1.62-2.24,1.5c-6.78-0.73-13.67-0.66-20.38,0.19
					C123.82,108.67,123.73,108.68,123.65,108.68z M134.05,74.99c-4.65,0-9.83,8.43-9.83,20.53c0,3.02,0.34,6.02,0.99,8.76
					c5.87-0.62,11.8-0.68,17.73-0.16c0.62-2.69,0.94-5.62,0.94-8.6C143.87,83.42,138.7,74.99,134.05,74.99z"/>
			</g>
		</g>
		<g>
			<g>
				<path class="st0" d="M66.82,105.87c3.23,0,6.44,0.18,9.6,0.52c0.93-3.23,1.46-6.93,1.46-10.86c0-12.49-5.33-22.63-11.92-22.63
					c-6.58,0-11.92,10.13-11.92,22.63c0,4.01,0.55,7.78,1.51,11.05C59.25,106.11,63.01,105.87,66.82,105.87z"/>
				<path class="st0" d="M55.55,108.68c-0.92,0-1.74-0.6-2.01-1.5c-1.05-3.54-1.6-7.57-1.6-11.65c0-13.86,6.16-24.72,14.01-24.72
					c7.86,0,14.01,10.86,14.01,24.72c0,4-0.53,7.96-1.54,11.44c-0.28,0.98-1.17,1.62-2.24,1.5c-6.75-0.73-13.64-0.66-20.38,0.19
					C55.73,108.67,55.64,108.68,55.55,108.68z M65.96,74.99c-4.65,0-9.82,8.43-9.82,20.53c0,3.04,0.34,6.03,0.98,8.76
					c5.89-0.62,11.83-0.68,17.73-0.16c0.62-2.69,0.94-5.62,0.94-8.6C75.78,83.42,70.6,74.99,65.96,74.99z"/>
			</g>
		</g>
	</g>
	<g>
		<g>
			<path class="st0" d="M136.86,148.51c-2.29-5.46-1.87-10.56,0.05-16.05c0.83-2.35,1.61-5.24-1.4-6.51
				c-3.84-1.62-5.31,2.72-6.2,5.45c-2.5,5.64-2.5,13.16-0.01,18.83c0.88,2.73,2.37,7.1,6.21,5.47
				C138.74,154.35,137.62,151.02,136.86,148.51z"/>
		</g>
		<g>
			<path class="st0" d="M63.89,148.51c2.3-5.46,1.87-10.56-0.05-16.05c-0.83-2.35-1.61-5.24,1.4-6.51c3.83-1.62,5.32,2.72,6.2,5.45
				c2.5,5.64,2.5,13.16,0.02,18.83c-0.89,2.73-2.37,7.1-6.22,5.47C62.03,154.35,63.13,151.02,63.89,148.51z"/>
		</g>
		<g>
			<g>
				<path class="st0" d="M131.92,144.07c0,0-0.26-0.11-0.74-0.33c-0.47-0.24-1.19-0.56-2.05-1.02c-0.88-0.43-1.96-0.87-3.13-1.42
					c-0.58-0.27-1.24-0.52-1.92-0.79c-0.7-0.26-1.35-0.62-2.13-0.85c-0.75-0.25-1.51-0.54-2.31-0.83c-0.82-0.25-1.66-0.51-2.53-0.78
					c-0.45-0.14-0.91-0.29-1.36-0.43c-0.43-0.1-0.87-0.2-1.31-0.3c-0.89-0.17-1.71-0.48-2.68-0.61c-0.95-0.14-1.89-0.38-2.86-0.53
					c-0.97-0.11-1.95-0.23-2.93-0.38c-1-0.09-2.01-0.12-3-0.22c-1.01-0.07-2.01-0.03-3.02-0.07c-2.02,0-4.03,0.11-6.01,0.32
					c-1,0.07-1.96,0.24-2.94,0.38c-0.48,0.08-0.97,0.13-1.44,0.22c-0.47,0.11-0.94,0.2-1.42,0.29c-0.47,0.09-0.93,0.19-1.39,0.28
					c-0.47,0.09-0.91,0.24-1.35,0.34c-0.89,0.25-1.8,0.42-2.63,0.72c-0.85,0.27-1.69,0.53-2.48,0.79c-0.8,0.3-1.56,0.58-2.29,0.87
					c-0.76,0.23-1.43,0.58-2.1,0.86c-0.67,0.29-1.32,0.55-1.92,0.83c-1.15,0.59-2.23,1.07-3.07,1.53c-0.83,0.47-1.52,0.83-1.98,1.08
					c-0.48,0.24-0.74,0.37-0.74,0.37s0.15-0.24,0.43-0.68c0.3-0.43,0.72-1.1,1.3-1.91c0.61-0.81,1.42-1.69,2.37-2.74
					c0.47-0.52,1.05-0.98,1.62-1.52c0.6-0.53,1.21-1.1,1.92-1.6c0.69-0.52,1.43-1.04,2.2-1.59c0.8-0.5,1.64-0.98,2.51-1.48
					c0.22-0.13,0.43-0.27,0.66-0.38c0.23-0.11,0.46-0.22,0.7-0.32c0.47-0.22,0.94-0.43,1.42-0.66c0.95-0.48,1.97-0.83,3.02-1.2
					c0.52-0.17,1.04-0.37,1.56-0.54c0.55-0.16,1.1-0.29,1.65-0.43c0.55-0.14,1.11-0.28,1.66-0.43c0.56-0.15,1.13-0.2,1.71-0.3
					c2.28-0.42,4.65-0.56,7.01-0.61c1.18,0.05,2.37,0.04,3.54,0.15c1.17,0.12,2.33,0.28,3.48,0.43c1.14,0.23,2.27,0.48,3.37,0.74
					c1.1,0.28,2.17,0.64,3.21,0.99l0.79,0.26c0.25,0.09,0.52,0.2,0.77,0.31c0.52,0.22,1.02,0.43,1.52,0.65
					c0.49,0.23,0.97,0.44,1.46,0.65c0.44,0.23,0.85,0.47,1.27,0.7c0.41,0.23,0.82,0.47,1.22,0.69c0.2,0.12,0.39,0.23,0.59,0.34
					l0.15,0.08l0.07,0.04l0.04,0.02l0.02,0.01c0.04,0.02-0.08-0.03,0.11,0.06l0.29,0.2c0.77,0.53,1.51,1.04,2.21,1.54
					c0.72,0.49,1.33,1.06,1.92,1.56c0.6,0.54,1.17,0.98,1.66,1.49c0.98,1.01,1.84,1.88,2.46,2.65c0.61,0.77,1.04,1.42,1.37,1.83
					C131.76,143.84,131.92,144.07,131.92,144.07z"/>
				<path class="st0" d="M68.2,146.47c-0.57,0-1.13-0.23-1.54-0.68c-0.63-0.69-0.73-1.71-0.25-2.51l0.87-1.33
					c0.26-0.38,0.57-0.86,0.95-1.38c0.59-0.79,1.33-1.61,2.18-2.55l0.34-0.37c0.36-0.4,0.77-0.76,1.18-1.13l0.56-0.51
					c0.88-0.78,1.48-1.31,2.16-1.78c0.58-0.44,1.26-0.92,1.97-1.43c1.16-0.74,2.01-1.24,2.91-1.75c0.33-0.2,0.53-0.32,0.74-0.43
					l2.18-1.01c0.89-0.45,1.91-0.81,2.95-1.18l1.9-0.65c0.48-0.14,0.9-0.25,1.33-0.35l2.09-0.53c0.43-0.11,0.89-0.19,1.35-0.26
					l0.52-0.08c2.07-0.38,4.42-0.59,7.34-0.64l1.27,0.04c0.83,0.02,1.67,0.04,2.49,0.12c1.17,0.12,2.3,0.27,3.43,0.43
					c1.43,0.27,2.58,0.53,3.71,0.79c1.17,0.3,2.28,0.67,3.35,1.03l4.75,1.95l2.69,1.49l-0.44,2.17l1.02-1.83
					c0.07,0.04,0.14,0.08,0.2,0.13l0,0c0.09,0.04,0.56,0.34,0.64,0.39l2.26,1.57c0.56,0.38,1.09,0.83,1.6,1.27l1.06,0.91
					c0.44,0.38,0.85,0.73,1.22,1.13l0.33,0.34c0.9,0.92,1.67,1.73,2.25,2.45c0.38,0.48,0.69,0.91,0.95,1.27l0.68,0.93
					c0.45,0.38,0.74,0.96,0.74,1.6c0,1.16-0.94,2.1-2.1,2.1c-0.02,0-0.05,0-0.08,0c-0.28,0-0.57-0.06-0.84-0.18l-1.4-0.65
					c-0.43-0.21-0.95-0.46-1.54-0.77c-0.36-0.18-0.84-0.39-1.35-0.61c-0.54-0.23-1.11-0.49-1.7-0.77c-0.38-0.18-0.84-0.36-1.32-0.55
					l-0.49-0.19c-0.26-0.1-0.57-0.23-0.88-0.37c-0.34-0.15-0.68-0.31-1.06-0.42c-0.7-0.23-1.35-0.47-2.02-0.72l-5.35-1.59
					c-0.35-0.07-0.75-0.17-1.17-0.28c-0.42-0.11-0.85-0.23-1.33-0.3c-0.56-0.08-1.07-0.18-1.6-0.29c-0.43-0.09-0.87-0.17-1.31-0.24
					c-0.9-0.1-1.91-0.23-2.92-0.38l-1.12-0.07c-0.6-0.04-1.19-0.08-1.78-0.14c-0.5-0.03-1.06-0.04-1.63-0.04l-1.24-0.02
					c-1.83,0-3.78,0.1-5.72,0.31c-0.77,0.05-1.45,0.16-2.12,0.26l-2.12,0.32c-0.32,0.08-0.76,0.16-1.2,0.25l-1.22,0.25
					c-0.53,0.11-0.74,0.16-0.94,0.22l-1.65,0.42c-0.48,0.12-0.96,0.23-1.41,0.4l-4.73,1.63c-0.61,0.19-1.01,0.38-1.4,0.56l-1.38,0.6
					c-0.38,0.16-0.76,0.32-1.11,0.49c-0.49,0.25-1.03,0.52-1.54,0.76c-0.52,0.25-1,0.48-1.42,0.71c-0.56,0.32-1.09,0.6-1.52,0.83
					l-1.26,0.65C68.84,146.4,68.52,146.47,68.2,146.47z M99.86,130.09c-2.57,0.04-4.69,0.23-6.55,0.57l-0.65,0.11
					c-0.3,0.04-0.6,0.08-0.89,0.16l-2.15,0.55c-0.37,0.09-0.75,0.18-1.12,0.29l-1.49,0.52c-1.11,0.39-1.95,0.68-2.73,1.07
					l-2.47,1.19c-1.07,0.61-1.88,1.08-2.66,1.57c-0.78,0.56-1.44,1.03-2.05,1.49c-0.18,0.13-0.35,0.25-0.52,0.38
					c0.27-0.11,0.54-0.2,0.81-0.29c0.53-0.22,1.25-0.49,2.01-0.77l2.74-0.88c0.5-0.18,1.12-0.34,1.76-0.49l1.54-0.4
					c0.29-0.08,0.59-0.16,0.89-0.22l5.07-0.92c0.79-0.12,1.58-0.24,2.39-0.29c2-0.21,4.09-0.32,6.14-0.32l1.19,0.02
					c0.66,0,1.32,0.01,1.98,0.05c0.6,0.06,1.14,0.09,1.68,0.13l1.35,0.09c1.08,0.16,2.03,0.28,2.98,0.38
					c0.59,0.09,1.09,0.19,1.58,0.29c0.45,0.09,0.9,0.18,1.36,0.25c0.63,0.08,1.23,0.24,1.82,0.4c0.32,0.08,0.63,0.17,0.95,0.23
					l5.95,1.76c0.62,0.23,1.22,0.46,1.82,0.65c0.23,0.07,0.45,0.15,0.68,0.24c-0.13-0.1-0.27-0.2-0.41-0.3l-1.9-1.33l0.57-2.15
					l-0.9,1.89c-0.09-0.05-0.19-0.1-0.27-0.16l-0.01,0.01l0-0.01c-0.17-0.11-0.32-0.25-0.45-0.41l-0.09,0.1l-6.94-3.26
					c-1.03-0.34-2.04-0.68-3.07-0.95c-1.04-0.24-2.14-0.49-3.26-0.71c-1.09-0.14-2.18-0.29-3.28-0.41c-0.71-0.06-1.45-0.08-2.2-0.1
					L99.86,130.09z"/>
			</g>
		</g>
	</g>
</g>
</svg>
